<svg width="703" height="166" viewBox="0 0 703 166" fill="none" xmlns="http://www.w3.org/2000/svg">
<path fill-rule="evenodd" clip-rule="evenodd" d="M62.5 101H98.2143V110H62.5V101ZM35.7143 110L62.5 83L35.7143 56L29.0179 62.75L49.1071 83L29.0179 103.25L35.7143 110ZM125 38V128C125 132.95 120.982 137 116.071 137H8.92857C4.01786 137 0 132.95 0 128V38C0 33.05 4.01786 29 8.92857 29H116.071C120.982 29 125 33.05 125 38ZM116.071 38H8.92857V128H116.071V38Z" fill="#04030C" fill-opacity="0.62"/>
<path d="M209.488 125.48C201.872 125.48 195.248 124.104 189.616 121.352C183.984 118.536 179.664 114.568 176.656 109.448C173.648 104.328 172.144 98.376 172.144 91.592C172.144 82.184 173.904 73.832 177.424 66.536C181.008 59.24 185.84 53.608 191.92 49.64C198 45.608 204.752 43.592 212.176 43.592C219.088 43.592 224.336 45.384 227.92 48.968C231.504 52.488 233.296 57.16 233.296 62.984C233.296 66.888 232.592 70.024 231.184 72.392C229.84 74.76 227.888 75.944 225.328 75.944C223.536 75.944 222.128 75.528 221.104 74.696C220.08 73.864 219.568 72.648 219.568 71.048C219.568 70.472 219.696 69.416 219.952 67.88C220.336 65.96 220.528 64.424 220.528 63.272C220.528 57.448 217.424 54.536 211.216 54.536C206.992 54.536 202.96 55.912 199.12 58.664C195.28 61.416 192.176 65.48 189.808 70.856C187.44 76.168 186.256 82.504 186.256 89.864C186.256 97.544 188.4 103.496 192.688 107.72C196.976 111.88 203.312 113.96 211.696 113.96C215.856 113.96 220.048 113.448 224.272 112.424C228.56 111.336 233.296 109.704 238.48 107.528C239.44 107.144 240.24 106.952 240.88 106.952C241.904 106.952 242.672 107.336 243.184 108.104C243.696 108.872 243.952 109.864 243.952 111.08C243.952 114.984 241.84 117.864 237.616 119.72C233.072 121.704 228.336 123.176 223.408 124.136C218.544 125.032 213.904 125.48 209.488 125.48ZM284.443 95.528C285.275 95.528 285.915 95.944 286.363 96.776C286.811 97.608 287.035 98.664 287.035 99.944C287.035 103.016 286.107 104.84 284.251 105.416C280.411 106.76 276.187 107.528 271.579 107.72C270.363 113.096 267.963 117.416 264.379 120.68C260.795 123.88 256.731 125.48 252.187 125.48C248.347 125.48 245.051 124.552 242.299 122.696C239.611 120.84 237.563 118.376 236.155 115.304C234.747 112.232 234.043 108.904 234.043 105.32C234.043 100.456 234.971 96.136 236.827 92.36C238.683 88.52 241.243 85.544 244.507 83.432C247.771 81.256 251.387 80.168 255.355 80.168C260.219 80.168 264.123 81.864 267.067 85.256C270.075 88.584 271.835 92.712 272.347 97.64C275.355 97.448 278.939 96.808 283.099 95.72C283.611 95.592 284.059 95.528 284.443 95.528ZM252.955 115.304C255.003 115.304 256.763 114.472 258.235 112.808C259.771 111.144 260.795 108.744 261.307 105.608C259.323 104.264 257.787 102.504 256.699 100.328C255.675 98.152 255.163 95.848 255.163 93.416C255.163 92.392 255.259 91.368 255.451 90.344H254.971C252.411 90.344 250.267 91.592 248.539 94.088C246.875 96.52 246.043 99.976 246.043 104.456C246.043 107.976 246.715 110.664 248.059 112.52C249.467 114.376 251.099 115.304 252.955 115.304ZM333.324 103.592C334.156 103.592 334.796 103.976 335.244 104.744C335.756 105.512 336.012 106.568 336.012 107.912C336.012 110.472 335.404 112.456 334.188 113.864C331.564 117.064 328.684 119.816 325.548 122.12C322.412 124.36 319.308 125.48 316.236 125.48C311.372 125.48 307.66 122.632 305.1 116.936C302.412 120.328 300.044 122.6 297.996 123.752C296.012 124.904 293.676 125.48 290.988 125.48C287.084 125.48 283.852 124.04 281.292 121.16C278.796 118.216 277.548 114.408 277.548 109.736C277.548 104.616 278.636 99.88 280.812 95.528C282.988 91.112 285.964 87.528 289.74 84.776C293.58 81.96 297.868 80.296 302.604 79.784C303.82 67.368 306.124 56.776 309.516 48.008C312.972 39.176 317.484 34.76 323.052 34.76C325.804 34.76 328.076 36.008 329.868 38.504C331.724 41 332.652 44.776 332.652 49.832C332.652 57 330.892 65.384 327.372 74.984C323.852 84.584 319.148 94.44 313.26 104.552C313.516 108.264 314.06 110.92 314.892 112.52C315.788 114.12 316.908 114.92 318.252 114.92C319.98 114.92 321.74 114.152 323.531 112.616C325.324 111.08 327.724 108.52 330.732 104.936C331.5 104.04 332.364 103.592 333.324 103.592ZM321.996 44.168C320.78 44.168 319.564 46.344 318.348 50.696C317.132 54.984 316.076 60.616 315.18 67.592C314.348 74.568 313.74 81.864 313.356 89.48C320.524 73.864 324.108 61.32 324.108 51.848C324.108 49.416 323.884 47.528 323.436 46.184C323.052 44.84 322.572 44.168 321.996 44.168ZM294.348 115.784C295.564 115.784 296.78 115.304 297.996 114.344C299.212 113.32 300.748 111.464 302.604 108.776C301.964 105.32 301.644 101.448 301.644 97.16C301.644 95.624 301.708 93.128 301.836 89.672C298.316 90.76 295.372 93.128 293.004 96.776C290.7 100.36 289.548 104.36 289.548 108.776C289.548 113.448 291.148 115.784 294.348 115.784ZM362.57 106.472C363.402 106.472 364.042 106.856 364.49 107.624C365.002 108.392 365.258 109.448 365.258 110.792C365.258 113.096 364.714 115.08 363.626 116.744C361.834 119.496 359.466 121.64 356.522 123.176C353.642 124.712 350.186 125.48 346.154 125.48C340.01 125.48 335.242 123.656 331.85 120.008C328.458 116.296 326.762 111.304 326.762 105.032C326.762 100.616 327.69 96.52 329.546 92.744C331.402 88.904 333.962 85.864 337.226 83.624C340.554 81.384 344.298 80.264 348.458 80.264C352.17 80.264 355.146 81.384 357.386 83.624C359.626 85.8 360.746 88.776 360.746 92.552C360.746 96.968 359.146 100.776 355.946 103.976C352.81 107.112 347.434 109.608 339.818 111.464C341.354 114.408 343.946 115.88 347.594 115.88C350.218 115.88 352.362 115.272 354.026 114.056C355.754 112.84 357.738 110.792 359.978 107.912C360.746 106.952 361.61 106.472 362.57 106.472ZM346.826 89.672C344.458 89.672 342.442 91.048 340.778 93.8C339.178 96.552 338.378 99.88 338.378 103.784V103.976C342.154 103.08 345.13 101.736 347.306 99.944C349.482 98.152 350.57 96.072 350.57 93.704C350.57 92.488 350.218 91.528 349.514 90.824C348.874 90.056 347.978 89.672 346.826 89.672Z" fill="#6777C8"/>
<path d="M443.799 45.32C445.783 45.704 447.255 46.376 448.215 47.336C449.239 48.296 449.751 49.416 449.751 50.696C449.751 52.808 449.143 54.344 447.927 55.304C446.775 56.264 444.919 56.648 442.359 56.456C436.599 56.008 432.087 55.72 428.823 55.592C425.623 55.4 421.399 55.272 416.151 55.208C413.783 66.984 411.607 78.824 409.623 90.728C408.919 95.08 408.183 100.136 407.415 105.896C406.647 111.592 406.135 116.2 405.879 119.72C405.751 121.576 404.983 123.016 403.575 124.04C402.167 125 400.471 125.48 398.487 125.48C396.375 125.48 394.743 124.968 393.591 123.944C392.439 122.92 391.863 121.576 391.863 119.912C391.863 118.376 392.087 115.848 392.535 112.328C393.047 108.744 393.623 105 394.263 101.096C394.967 97.192 395.511 93.8 395.895 90.92C396.599 86.056 397.399 81.224 398.295 76.424C399.191 71.624 400.087 67.08 400.983 62.792C401.175 61.832 401.399 60.744 401.655 59.528C401.911 58.248 402.199 56.84 402.519 55.304C396.247 55.496 391.319 56.008 387.734 56.84C384.151 57.672 381.591 58.856 380.055 60.392C378.583 61.864 377.847 63.784 377.847 66.152C377.847 68.328 378.487 70.408 379.767 72.392C380.023 72.84 380.151 73.32 380.151 73.832C380.151 75.048 379.415 76.2 377.943 77.288C376.535 78.312 375.063 78.824 373.527 78.824C372.439 78.824 371.543 78.504 370.839 77.864C369.559 76.776 368.503 75.24 367.671 73.256C366.839 71.208 366.423 68.904 366.423 66.344C366.423 60.904 368.183 56.552 371.703 53.288C375.287 49.96 380.695 47.528 387.927 45.992C395.223 44.456 404.567 43.688 415.958 43.688C422.999 43.688 428.599 43.816 432.759 44.072C436.983 44.328 440.663 44.744 443.799 45.32ZM438.518 125.48C436.086 125.48 434.358 124.2 433.334 121.64C432.374 119.08 431.894 114.984 431.894 109.352C431.894 101.032 433.078 93.128 435.446 85.64C436.022 83.784 436.95 82.44 438.23 81.608C439.574 80.712 441.43 80.264 443.798 80.264C445.078 80.264 445.974 80.424 446.486 80.744C446.998 81.064 447.254 81.672 447.254 82.568C447.254 83.592 446.774 85.896 445.814 89.48C445.174 92.04 444.662 94.28 444.278 96.2C443.894 98.12 443.574 100.488 443.318 103.304C445.43 97.8 447.798 93.32 450.422 89.864C453.046 86.408 455.606 83.944 458.102 82.472C460.662 81 462.998 80.264 465.11 80.264C469.27 80.264 471.35 82.344 471.35 86.504C471.35 87.336 471.062 89.352 470.486 92.552C469.974 95.112 469.718 96.712 469.718 97.352C469.718 99.592 470.518 100.712 472.118 100.712C473.91 100.712 476.214 99.304 479.03 96.488C479.862 95.656 480.726 95.24 481.622 95.24C482.454 95.24 483.094 95.624 483.542 96.392C484.054 97.096 484.31 98.056 484.31 99.272C484.31 101.64 483.67 103.496 482.39 104.84C480.598 106.696 478.486 108.296 476.054 109.64C473.686 110.92 471.158 111.56 468.47 111.56C465.078 111.56 462.486 110.696 460.694 108.968C458.966 107.24 458.102 104.904 458.102 101.96C458.102 101 458.198 100.04 458.39 99.08C458.518 97.8 458.582 96.936 458.582 96.488C458.582 95.464 458.23 94.952 457.526 94.952C456.566 94.952 455.286 96.04 453.686 98.216C452.15 100.328 450.614 103.144 449.078 106.664C447.542 110.184 446.294 113.896 445.334 117.8C444.63 120.808 443.798 122.856 442.838 123.944C441.942 124.968 440.502 125.48 438.518 125.48ZM518.205 103.592C519.037 103.592 519.677 103.976 520.125 104.744C520.637 105.512 520.893 106.568 520.893 107.912C520.893 110.472 520.285 112.456 519.069 113.864C516.701 116.744 513.341 119.4 508.989 121.832C504.701 124.264 500.093 125.48 495.165 125.48C488.445 125.48 483.229 123.656 479.517 120.008C475.805 116.36 473.949 111.368 473.949 105.032C473.949 100.616 474.877 96.52 476.733 92.744C478.589 88.904 481.149 85.864 484.413 83.624C487.741 81.384 491.485 80.264 495.645 80.264C499.357 80.264 502.333 81.384 504.573 83.624C506.813 85.8 507.933 88.776 507.933 92.552C507.933 96.968 506.333 100.776 503.133 103.976C499.997 107.112 494.653 109.608 487.101 111.464C488.701 114.408 491.741 115.88 496.221 115.88C499.101 115.88 502.365 114.888 506.013 112.904C509.725 110.856 512.925 108.2 515.613 104.936C516.381 104.04 517.245 103.592 518.205 103.592ZM494.013 89.672C491.645 89.672 489.629 91.048 487.965 93.8C486.365 96.552 485.565 99.88 485.565 103.784V103.976C489.341 103.08 492.317 101.736 494.493 99.944C496.669 98.152 497.757 96.072 497.757 93.704C497.757 92.488 497.405 91.528 496.701 90.824C496.061 90.056 495.165 89.672 494.013 89.672ZM524.416 125.48C520.448 125.48 517.28 124.04 514.912 121.16C512.544 118.28 511.36 114.504 511.36 109.832C511.36 104.712 512.544 99.88 514.912 95.336C517.28 90.728 520.416 87.048 524.32 84.296C528.288 81.48 532.48 80.072 536.896 80.072C538.304 80.072 539.232 80.36 539.68 80.936C540.192 81.448 540.608 82.408 540.928 83.816C542.272 83.56 543.68 83.432 545.152 83.432C548.288 83.432 549.856 84.552 549.856 86.792C549.856 88.136 549.376 91.336 548.416 96.392C546.944 103.752 546.208 108.872 546.208 111.752C546.208 112.712 546.432 113.48 546.88 114.056C547.392 114.632 548.032 114.92 548.8 114.92C550.016 114.92 551.488 114.152 553.216 112.616C554.944 111.016 557.28 108.456 560.224 104.936C560.992 104.04 561.856 103.592 562.816 103.592C563.648 103.592 564.288 103.976 564.736 104.744C565.248 105.512 565.504 106.568 565.504 107.912C565.504 110.472 564.896 112.456 563.68 113.864C561.056 117.128 558.272 119.88 555.328 122.12C552.384 124.36 549.536 125.48 546.784 125.48C544.672 125.48 542.72 124.776 540.928 123.368C539.2 121.896 537.888 119.912 536.992 117.416C533.664 122.792 529.472 125.48 524.416 125.48ZM527.872 115.784C529.28 115.784 530.624 114.952 531.904 113.288C533.184 111.624 534.112 109.416 534.688 106.664L538.24 89C535.552 89.064 533.056 90.088 530.752 92.072C528.512 93.992 526.72 96.552 525.376 99.752C524.032 102.952 523.36 106.344 523.36 109.928C523.36 111.912 523.744 113.384 524.512 114.344C525.344 115.304 526.464 115.784 527.872 115.784ZM600.518 103.592C601.35 103.592 601.99 103.976 602.438 104.744C602.95 105.512 603.206 106.568 603.206 107.912C603.206 110.472 602.598 112.456 601.382 113.864C598.63 117.256 595.622 120.04 592.358 122.216C589.094 124.392 585.35 125.48 581.126 125.48C568.07 125.48 561.542 116.296 561.542 97.928C561.542 95.112 561.638 92.264 561.83 89.384H558.086C556.166 89.384 554.854 89.032 554.15 88.328C553.51 87.624 553.19 86.504 553.19 84.968C553.19 81.384 554.63 79.592 557.51 79.592H562.982C564.07 72.552 565.734 66.12 567.974 60.296C570.214 54.472 572.902 49.832 576.038 46.376C579.238 42.92 582.662 41.192 586.31 41.192C588.998 41.192 591.11 42.376 592.646 44.744C594.182 47.112 594.95 50.088 594.95 53.672C594.95 63.592 590.79 72.232 582.47 79.592H593.222C594.246 79.592 594.982 79.816 595.43 80.264C595.878 80.712 596.102 81.544 596.102 82.76C596.102 87.176 592.486 89.384 585.254 89.384H573.542C573.414 92.584 573.35 95.08 573.35 96.872C573.35 103.528 574.118 108.2 575.654 110.888C577.254 113.576 579.75 114.92 583.142 114.92C585.894 114.92 588.326 114.088 590.438 112.424C592.55 110.76 595.046 108.264 597.926 104.936C598.694 104.04 599.558 103.592 600.518 103.592ZM583.718 50.408C582.758 50.408 581.67 51.624 580.454 54.056C579.302 56.424 578.182 59.752 577.094 64.04C576.07 68.264 575.206 72.968 574.502 78.152C578.278 74.888 581.094 71.24 582.95 67.208C584.87 63.112 585.83 59.4 585.83 56.072C585.83 52.296 585.126 50.408 583.718 50.408ZM613.245 127.592C609.917 127.592 607.357 126.824 605.565 125.288C603.837 123.752 602.973 122.024 602.973 120.104C602.973 118.44 603.581 117 604.797 115.784C606.013 114.568 607.805 113.96 610.173 113.96C611.005 113.96 611.965 114.056 613.053 114.248C614.205 114.376 615.069 114.472 615.645 114.536C615.581 112.872 615.197 111.304 614.493 109.832C613.853 108.36 613.021 106.952 611.997 105.608C610.973 104.2 610.013 102.984 609.117 101.96C607.133 105.736 605.149 108.872 603.165 111.368C601.245 113.864 599.133 116.232 596.829 118.472C595.677 119.624 594.461 120.2 593.181 120.2C592.157 120.2 591.325 119.848 590.685 119.144C590.045 118.376 589.725 117.448 589.725 116.36C589.725 115.08 590.173 113.896 591.069 112.808L592.317 111.272C595.837 106.92 598.493 103.336 600.285 100.52C601.437 98.664 602.589 96.456 603.741 93.896C604.957 91.336 606.525 87.848 608.445 83.432C609.661 80.616 612.189 79.208 616.029 79.208C617.821 79.208 619.069 79.368 619.773 79.688C620.477 80.008 620.829 80.52 620.829 81.224C620.829 81.608 620.701 82.216 620.445 83.048C620.189 83.88 619.837 84.712 619.389 85.544C618.237 87.848 617.661 89.8 617.661 91.4C617.661 92.36 617.981 93.416 618.621 94.568C619.325 95.72 620.381 97.16 621.789 98.888C623.837 101.576 625.373 103.88 626.397 105.8C627.485 107.656 628.029 109.704 628.029 111.944C628.029 114.632 627.389 117.192 626.109 119.624C624.893 121.992 623.165 123.912 620.925 125.384C618.685 126.856 616.125 127.592 613.245 127.592Z" fill="black" fill-opacity="0.72"/>
</svg>
